<?xml version="1.0" encoding="utf-8"?>
<!-- Generator: Adobe Illustrator 27.5.0, SVG Export Plug-In . SVG Version: 6.00 Build 0)  -->
<svg version="1.1" id="Layer_1" xmlns="http://www.w3.org/2000/svg" xmlns:xlink="http://www.w3.org/1999/xlink" x="0px" y="0px"
	 viewBox="0 0 256 256" style="enable-background:new 0 0 256 256;" xml:space="preserve">
<style type="text/css">
	.st0{fill:#FFFFFF;}
</style>
<g>
	<path class="st0" d="M143.1,118.6h-30.2V129c0,1.3-1,2.3-2.3,2.3h-10c-1.1,0-1.9,0.9-1.9,1.9v34c0,0.7,0.6,1.3,1.3,1.3h11.6
		c0.7,0,1.3-0.6,1.3-1.3v-10.1c0-0.7,0.6-1.3,1.3-1.3h27.7c0.7,0,1.3,0.6,1.3,1.3v10.1c0,0.7,0.6,1.3,1.3,1.3h11.6
		c0.7,0,1.3-0.6,1.3-1.3v-34c0-1.1-0.9-1.9-1.9-1.9h-10c-1.3,0-2.3-1-2.3-2.3v-10.4h27.9V90.8h-28V118.6z"/>
	<rect x="85" y="90.8" class="st0" width="27.9" height="27.9"/>
	<path class="st0" d="M226.8,57L140.1,6.9c-7.5-4.3-16.7-4.3-24.2,0L29.2,57c-7.5,4.3-12.1,12.3-12.1,20.9v100.2
		c0,8.6,4.6,16.6,12.1,20.9l86.7,50.1c7.5,4.3,16.7,4.3,24.2,0l86.7-50.1c7.5-4.3,12.1-12.3,12.1-20.9V77.9
		C238.9,69.3,234.3,61.3,226.8,57z M192,167.6c0,13.5-10.9,24.4-24.4,24.4H88.4C74.9,192,64,181.1,64,167.6V88.4
		C64,74.9,74.9,64,88.4,64h79.2c13.5,0,24.4,10.9,24.4,24.4V167.6z"/>
</g>
</svg>
